<svg version="1.1" id="Layer_1" xmlns="http://www.w3.org/2000/svg" xmlns:xlink="http://www.w3.org/1999/xlink" x="0px" y="0px"
	 width="100%" viewBox="0 0 500 500" enable-background="new 0 0 500 500" xml:space="preserve">
<path fill="#2F2E2E" opacity="1.000000" stroke="none" 
	d="
M270.000000,501.000000 
	C180.000015,501.000000 90.500046,501.000000 1.000048,501.000000 
	C1.000032,334.333405 1.000032,167.666794 1.000016,1.000138 
	C167.666565,1.000092 334.333130,1.000092 500.999756,1.000046 
	C500.999847,167.666519 500.999847,334.333038 500.999939,500.999786 
	C424.166656,501.000000 347.333344,501.000000 270.000000,501.000000 
M117.030632,176.946671 
	C116.831696,187.095566 116.582932,197.249634 120.318253,207.723801 
	C124.893654,222.902634 132.897446,235.726028 146.460297,245.513504 
	C150.961411,248.707169 155.462509,251.900818 160.478165,255.532318 
	C164.656082,257.677979 168.834015,259.823639 173.560287,262.393494 
	C178.711655,264.559753 183.863037,266.726013 189.687164,269.207642 
	C195.462708,270.770355 201.238235,272.333069 207.730164,274.196075 
	C215.824280,275.738831 223.918411,277.281616 232.844559,278.936279 
	C242.789642,280.369385 252.734726,281.802460 263.397278,283.590790 
	C270.193268,284.889984 276.989258,286.189148 284.472900,287.784882 
	C289.256012,288.908569 294.039093,290.032227 299.430054,291.551361 
	C303.623840,293.031586 307.817657,294.511841 312.579224,296.394043 
	C318.017639,299.042786 323.456055,301.691528 329.363739,304.791199 
	C334.222198,308.258026 339.080627,311.724884 344.330292,315.706024 
	C348.220825,320.136505 352.111389,324.566956 356.306641,329.614197 
	C359.188141,335.088470 362.069611,340.562714 365.077454,346.806549 
	C366.767456,354.984009 368.457458,363.161469 370.405426,372.586975 
	C380.493591,357.148804 384.867737,341.112091 385.940552,323.058868 
	C386.103485,311.321869 384.840302,299.829742 379.893799,288.227722 
	C375.287231,280.782959 370.680664,273.338196 365.679016,265.363373 
	C360.163910,260.817383 354.648804,256.271393 348.674164,251.264481 
	C343.112305,247.876938 337.550415,244.489395 331.380768,240.740845 
	C326.918335,238.839767 322.455872,236.938690 317.380188,234.663528 
	C312.913330,233.157135 308.446472,231.650726 303.243134,229.921356 
	C298.541443,228.816040 293.839783,227.710724 288.418335,226.313141 
	C282.937225,225.295013 277.456146,224.276871 271.124329,223.102066 
	C262.478180,221.893005 253.832062,220.683945 244.458984,219.216766 
	C239.100647,218.375168 233.742294,217.533569 227.680359,216.335449 
	C222.205170,215.149033 216.729996,213.962616 210.615692,212.387573 
	C205.738968,210.941391 200.862228,209.495193 195.415222,207.634399 
	C191.643829,206.054626 187.872437,204.474854 183.574081,202.457001 
	C180.044983,200.646362 176.515869,198.835709 172.498688,196.566757 
	C168.698074,193.933334 164.897476,191.299896 160.675766,188.179901 
	C154.510635,181.017792 148.345520,173.855698 141.997391,166.017105 
	C140.009644,161.335205 138.021896,156.653305 135.961639,151.154861 
	C134.788406,144.380569 133.615189,137.606277 132.441956,130.832001 
	C122.555061,144.496292 117.386581,159.455414 117.030632,176.946671 
M373.639893,131.786118 
	C396.776367,113.657280 407.061066,89.436714 407.556000,60.498455 
	C404.999817,62.685715 402.956360,65.209770 400.781952,67.615456 
	C388.737213,80.941154 373.072601,87.179977 355.017029,90.579224 
	C350.413971,91.053596 345.817444,91.844719 341.206604,91.939224 
	C330.139099,92.166069 319.064850,92.065895 307.169006,91.931572 
	C290.425323,90.879372 273.681671,89.827164 256.040985,88.502411 
	C250.105194,88.337135 244.128937,87.654442 238.242050,88.114693 
	C226.128510,89.061760 214.062714,90.619850 201.151581,91.914810 
	C188.431946,93.993881 176.310486,97.848206 164.311951,104.212189 
	C158.068420,108.561760 151.702332,112.751877 145.676254,117.384315 
	C144.337952,118.413109 143.479355,121.054924 143.614075,122.863609 
	C145.902588,153.586044 161.888412,175.077957 188.735123,189.122452 
	C190.536835,190.065018 192.391296,190.906723 194.948608,192.148544 
	C192.628296,183.512268 193.486176,176.103790 197.519745,168.584702 
	C204.686737,157.394165 215.667984,152.226242 228.974319,149.256699 
	C239.245651,149.454437 249.525345,149.460831 259.785675,149.909653 
	C268.198639,150.277695 276.588531,151.172241 285.919800,151.961517 
	C301.695984,152.248581 317.484467,152.724609 333.802185,148.969528 
	C348.114990,146.198669 361.490723,141.259674 373.639893,131.786118 
M289.626862,347.216492 
	C285.109222,348.824219 280.704803,350.987976 276.052704,351.935272 
	C262.155151,354.765259 248.233719,352.748108 234.321396,351.457703 
	C212.075089,349.394287 189.817780,348.265442 167.732300,352.992340 
	C134.684448,360.065460 111.168076,378.526978 99.593002,410.836945 
	C96.137085,420.483612 94.052132,430.464020 95.211212,441.279816 
	C96.035751,440.665497 96.497971,440.458099 96.763786,440.103455 
	C112.171829,419.546997 134.004257,412.246521 158.391632,410.028595 
	C180.424255,408.024872 202.271759,410.874542 224.150711,412.439575 
	C250.450577,414.320831 276.684692,415.129669 302.703705,409.946228 
	C322.185699,406.065094 340.343048,399.085510 355.625854,385.805237 
	C358.296539,383.484467 359.409821,381.029633 358.995422,377.587677 
	C356.563080,357.386536 349.015900,339.722534 333.357056,326.162323 
	C325.869904,319.678619 317.699371,314.216644 307.878906,310.201660 
	C308.311584,313.267273 308.884064,315.540039 308.912842,317.819672 
	C309.086273,331.559692 301.425079,340.360809 289.626862,347.216492 
z"/>
<path fill="#EC1C24" opacity="1.000000" stroke="none" 
	d="
M289.966919,347.068024 
	C301.425079,340.360809 309.086273,331.559692 308.912842,317.819672 
	C308.884064,315.540039 308.311584,313.267273 307.878906,310.201660 
	C317.699371,314.216644 325.869904,319.678619 333.357056,326.162323 
	C349.015900,339.722534 356.563080,357.386536 358.995422,377.587677 
	C359.409821,381.029633 358.296539,383.484467 355.625854,385.805237 
	C340.343048,399.085510 322.185699,406.065094 302.703705,409.946228 
	C276.684692,415.129669 250.450577,414.320831 224.150711,412.439575 
	C202.271759,410.874542 180.424255,408.024872 158.391632,410.028595 
	C134.004257,412.246521 112.171829,419.546997 96.763786,440.103455 
	C96.497971,440.458099 96.035751,440.665497 95.211212,441.279816 
	C94.052132,430.464020 96.137085,420.483612 99.593002,410.836945 
	C111.168076,378.526978 134.684448,360.065460 167.732300,352.992340 
	C189.817780,348.265442 212.075089,349.394287 234.321396,351.457703 
	C248.233719,352.748108 262.155151,354.765259 276.052704,351.935272 
	C280.704803,350.987976 285.109222,348.824219 289.966919,347.068024 
z"/>
<path fill="#DB1B27" opacity="1.000000" stroke="none" 
	d="
M201.977280,91.926483 
	C214.062714,90.619850 226.128510,89.061760 238.242050,88.114693 
	C244.128937,87.654442 250.105194,88.337135 256.540771,88.973282 
	C257.558289,91.010620 257.914307,92.654289 258.619232,94.131424 
	C264.538055,106.533569 270.646851,118.846680 276.433838,131.309464 
	C279.552917,138.026581 282.153900,144.984268 284.988647,151.833405 
	C276.588531,151.172241 268.198639,150.277695 259.785675,149.909653 
	C249.525345,149.460831 239.245651,149.454437 228.402084,148.893936 
	C220.196243,132.639191 212.510345,116.771935 204.978073,100.832077 
	C203.648773,98.019028 202.961197,94.902740 201.977280,91.926483 
z"/>
<path fill="#D21B29" opacity="1.000000" stroke="none" 
	d="
M285.454224,151.897461 
	C282.153900,144.984268 279.552917,138.026581 276.433838,131.309464 
	C270.646851,118.846680 264.538055,106.533569 258.619232,94.131424 
	C257.914307,92.654289 257.558289,91.010620 256.989258,89.109558 
	C273.681671,89.827164 290.425323,90.879372 307.643250,92.385117 
	C309.043701,95.483170 309.731659,98.241898 310.935791,100.753120 
	C317.372803,114.177338 323.993744,127.513458 330.410614,140.947144 
	C331.600952,143.439102 332.148376,146.238113 332.992523,148.895416 
	C317.484467,152.724609 301.695984,152.248581 285.454224,151.897461 
z"/>
<path fill="#E51C26" opacity="1.000000" stroke="none" 
	d="
M201.564423,91.920647 
	C202.961197,94.902740 203.648773,98.019028 204.978073,100.832077 
	C212.510345,116.771935 220.196243,132.639191 227.935211,148.893188 
	C215.667984,152.226242 204.686737,157.394165 197.012756,168.558258 
	C195.894150,167.747513 195.115784,167.043243 194.695389,166.167206 
	C184.772247,145.488541 174.887680,124.791367 164.996048,104.097580 
	C176.310486,97.848206 188.431946,93.993881 201.564423,91.920647 
z"/>
<path fill="#C91B2B" opacity="1.000000" stroke="none" 
	d="
M333.397339,148.932465 
	C332.148376,146.238113 331.600952,143.439102 330.410614,140.947144 
	C323.993744,127.513458 317.372803,114.177338 310.935791,100.753120 
	C309.731659,98.241898 309.043701,95.483170 308.055420,92.468170 
	C319.064850,92.065895 330.139099,92.166069 341.206604,91.939224 
	C345.817444,91.844719 350.413971,91.053596 355.563171,90.896927 
	C359.924774,99.514771 363.922729,107.737503 367.488129,116.143707 
	C369.671631,121.291725 371.191620,126.721176 373.009552,132.024246 
	C361.490723,141.259674 348.114990,146.198669 333.397339,148.932465 
z"/>
<path fill="#EC1C24" opacity="1.000000" stroke="none" 
	d="
M164.653992,104.154884 
	C174.887680,124.791367 184.772247,145.488541 194.695389,166.167206 
	C195.115784,167.043243 195.894150,167.747513 196.749588,168.764435 
	C193.486176,176.103790 192.628296,183.512268 194.948608,192.148544 
	C192.391296,190.906723 190.536835,190.065018 188.735123,189.122452 
	C161.888412,175.077957 145.902588,153.586044 143.614075,122.863609 
	C143.479355,121.054924 144.337952,118.413109 145.676254,117.384315 
	C151.702332,112.751877 158.068420,108.561760 164.653992,104.154884 
z"/>
<path fill="#717377" opacity="1.000000" stroke="none" 
	d="
M245.185913,219.474854 
	C253.832062,220.683945 262.478180,221.893005 271.631836,223.509277 
	C273.087280,225.456757 273.887390,227.114883 275.006500,228.518707 
	C284.288696,240.162720 282.453400,256.375549 270.775299,265.384125 
	C259.669403,273.951294 243.017746,271.837952 234.638992,260.797913 
	C225.707138,249.029129 228.049286,233.016479 239.959610,224.040176 
	C241.802078,222.651566 243.448715,221.003128 245.185913,219.474854 
z"/>
<path fill="#6C6D71" opacity="1.000000" stroke="none" 
	d="
M244.822449,219.345810 
	C243.448715,221.003128 241.802078,222.651566 239.959610,224.040176 
	C228.049286,233.016479 225.707138,249.029129 234.638992,260.797913 
	C243.017746,271.837952 259.669403,273.951294 270.775299,265.384125 
	C282.453400,256.375549 284.288696,240.162720 275.006500,228.518707 
	C273.887390,227.114883 273.087280,225.456757 272.057190,223.587616 
	C277.456146,224.276871 282.937225,225.295013 288.857178,226.847626 
	C289.748810,228.808533 290.191925,230.238083 290.655945,231.660843 
	C295.795410,247.419708 292.937592,261.522766 280.544403,272.619568 
	C275.480743,277.153534 268.686646,279.754944 262.679810,283.235535 
	C252.734726,281.802460 242.789642,280.369385 232.292206,278.580566 
	C229.688309,275.834778 227.713867,273.373169 225.572723,271.066284 
	C211.516754,255.922409 212.853851,229.733444 228.383957,216.691971 
	C233.742294,217.533569 239.100647,218.375168 244.822449,219.345810 
z"/>
<path fill="#49494C" opacity="1.000000" stroke="none" 
	d="
M145.972961,245.064987 
	C132.897446,235.726028 124.893654,222.902634 120.499969,207.167786 
	C121.788208,204.616089 123.127464,202.712875 123.962753,200.609497 
	C128.733078,188.597305 133.121277,176.397003 142.180405,166.693588 
	C148.345520,173.855698 154.510635,181.017792 160.772018,188.799545 
	C159.794266,191.841873 158.855133,194.335495 157.624313,196.675720 
	C149.654221,211.829559 146.346481,228.090302 145.972961,245.064987 
z"/>
<path fill="#C11B2C" opacity="1.000000" stroke="none" 
	d="
M373.324707,131.905182 
	C371.191620,126.721176 369.671631,121.291725 367.488129,116.143707 
	C363.922729,107.737503 359.924774,99.514771 356.005585,90.829559 
	C373.072601,87.179977 388.737213,80.941154 400.781952,67.615456 
	C402.956360,65.209770 404.999817,62.685715 407.556000,60.498455 
	C407.061066,89.436714 396.776367,113.657280 373.324707,131.905182 
z"/>
<path fill="#505053" opacity="1.000000" stroke="none" 
	d="
M343.939087,315.191711 
	C339.080627,311.724884 334.222198,308.258026 329.264099,304.215454 
	C340.259155,288.042145 347.434235,270.936890 349.133698,251.725403 
	C354.648804,256.271393 360.163910,260.817383 365.804871,266.028900 
	C362.762817,284.747803 354.473511,300.478790 343.939087,315.191711 
z"/>
<path fill="#66666A" opacity="1.000000" stroke="none" 
	d="
M228.032166,216.513702 
	C212.853851,229.733444 211.516754,255.922409 225.572723,271.066284 
	C227.713867,273.373169 229.688309,275.834778 231.876190,278.524597 
	C223.918411,277.281616 215.824280,275.738831 207.303375,273.681824 
	C205.765137,270.054779 204.607834,266.957489 203.549759,263.826660 
	C197.353470,245.492050 199.157288,228.354675 211.254807,212.776199 
	C216.729996,213.962616 222.205170,215.149033 228.032166,216.513702 
z"/>
<path fill="#57575A" opacity="1.000000" stroke="none" 
	d="
M348.903931,251.494934 
	C347.434235,270.936890 340.259155,288.042145 329.029419,303.989990 
	C323.456055,301.691528 318.017639,299.042786 312.555481,295.985718 
	C326.359344,280.041199 332.269440,261.677124 331.988556,241.101852 
	C337.550415,244.489395 343.112305,247.876938 348.903931,251.494934 
z"/>
<path fill="#49494C" opacity="1.000000" stroke="none" 
	d="
M344.134705,315.448853 
	C354.473511,300.478790 362.762817,284.747803 366.002411,266.293945 
	C370.680664,273.338196 375.287231,280.782959 379.838989,288.919922 
	C378.785248,292.081696 377.912323,294.611420 376.765930,297.010529 
	C371.240936,308.573486 365.886597,320.260101 356.001953,328.997437 
	C352.111389,324.566956 348.220825,320.136505 344.134705,315.448853 
z"/>
<path fill="#606064" opacity="1.000000" stroke="none" 
	d="
M210.935242,212.581879 
	C199.157288,228.354675 197.353470,245.492050 203.549759,263.826660 
	C204.607834,266.957489 205.765137,270.054779 206.945190,273.531677 
	C201.238235,272.333069 195.462708,270.770355 189.287079,268.665527 
	C182.698639,247.087769 184.815445,227.033508 195.985504,208.049011 
	C200.862228,209.495193 205.738968,210.941391 210.935242,212.581879 
z"/>
<path fill="#5A5A5D" opacity="1.000000" stroke="none" 
	d="
M195.700363,207.841705 
	C184.815445,227.033508 182.698639,247.087769 188.950699,268.507812 
	C183.863037,266.726013 178.711655,264.559753 173.283051,261.736694 
	C172.798004,258.443329 172.587692,255.806946 172.382782,253.170135 
	C170.984482,235.175583 174.098892,218.232529 184.101044,202.895081 
	C187.872437,204.474854 191.643829,206.054626 195.700363,207.841705 
z"/>
<path fill="#606064" opacity="1.000000" stroke="none" 
	d="
M298.822205,291.155884 
	C294.039093,290.032227 289.256012,288.908569 284.344177,287.332001 
	C293.621704,278.988342 301.397736,269.648254 303.362488,257.362305 
	C304.782349,248.483826 303.858307,239.230484 303.979614,230.144333 
	C308.446472,231.650726 312.913330,233.157135 317.710449,235.276031 
	C318.188019,237.209961 318.392670,238.527863 318.473999,239.853363 
	C319.705872,259.932373 313.158112,277.037262 298.822205,291.155884 
z"/>
<path fill="#66666A" opacity="1.000000" stroke="none" 
	d="
M303.611389,230.032837 
	C303.858307,239.230484 304.782349,248.483826 303.362488,257.362305 
	C301.397736,269.648254 293.621704,278.988342 284.000366,287.183716 
	C276.989258,286.189148 270.193268,284.889984 263.038544,283.413147 
	C268.686646,279.754944 275.480743,277.153534 280.544403,272.619568 
	C292.937592,261.522766 295.795410,247.419708 290.655945,231.660843 
	C290.191925,230.238083 289.748810,228.808533 289.217041,226.993774 
	C293.839783,227.710724 298.541443,228.816040 303.611389,230.032837 
z"/>
<path fill="#505053" opacity="1.000000" stroke="none" 
	d="
M146.216629,245.289246 
	C146.346481,228.090302 149.654221,211.829559 157.624313,196.675720 
	C158.855133,194.335495 159.794266,191.841873 160.982574,189.042816 
	C164.897476,191.299896 168.698074,193.933334 172.557556,197.081177 
	C171.029053,200.691437 169.304245,203.725388 167.877625,206.893600 
	C160.963638,222.248138 159.252853,238.477203 159.963623,255.094482 
	C155.462509,251.900818 150.961411,248.707169 146.216629,245.289246 
z"/>
<path fill="#5A5A5D" opacity="1.000000" stroke="none" 
	d="
M299.126129,291.353638 
	C313.158112,277.037262 319.705872,259.932373 318.473999,239.853363 
	C318.392670,238.527863 318.188019,237.209961 318.017059,235.463074 
	C322.455872,236.938690 326.918335,238.839767 331.684662,240.921356 
	C332.269440,261.677124 326.359344,280.041199 312.271576,295.784729 
	C307.817657,294.511841 303.623840,293.031586 299.126129,291.353638 
z"/>
<path fill="#424244" opacity="1.000000" stroke="none" 
	d="
M356.154297,329.305817 
	C365.886597,320.260101 371.240936,308.573486 376.765930,297.010529 
	C377.912323,294.611420 378.785248,292.081696 379.933228,289.274902 
	C384.840302,299.829742 386.103485,311.321869 385.640991,323.671875 
	C383.309418,326.658875 381.418854,329.174133 379.216461,331.377808 
	C374.395416,336.201630 372.535034,343.914673 364.951111,346.036987 
	C362.069611,340.562714 359.188141,335.088470 356.154297,329.305817 
z"/>
<path fill="#57575A" opacity="1.000000" stroke="none" 
	d="
M160.220886,255.313400 
	C159.252853,238.477203 160.963638,222.248138 167.877625,206.893600 
	C169.304245,203.725388 171.029053,200.691437 172.801605,197.310333 
	C176.515869,198.835709 180.044983,200.646362 183.837555,202.676041 
	C174.098892,218.232529 170.984482,235.175583 172.382782,253.170135 
	C172.587692,255.806946 172.798004,258.443329 173.008881,261.524597 
	C168.834015,259.823639 164.656082,257.677979 160.220886,255.313400 
z"/>
<path fill="#424244" opacity="1.000000" stroke="none" 
	d="
M142.088898,166.355347 
	C133.121277,176.397003 128.733078,188.597305 123.962753,200.609497 
	C123.127464,202.712875 121.788208,204.616089 120.418747,206.809067 
	C116.582932,197.249634 116.831696,187.095566 117.336128,176.327484 
	C120.484718,171.664108 123.184288,167.508591 126.210732,163.606583 
	C129.318893,159.599197 132.746399,155.839493 136.034149,151.971405 
	C138.021896,156.653305 140.009644,161.335205 142.088898,166.355347 
z"/>
<path fill="#3C3C3E" opacity="1.000000" stroke="none" 
	d="
M365.014282,346.421753 
	C372.535034,343.914673 374.395416,336.201630 379.216461,331.377808 
	C381.418854,329.174133 383.309418,326.658875 385.633942,324.134552 
	C384.867737,341.112091 380.493591,357.148804 370.405426,372.586975 
	C368.457458,363.161469 366.767456,354.984009 365.014282,346.421753 
z"/>
<path fill="#3C3C3E" opacity="1.000000" stroke="none" 
	d="
M135.997894,151.563126 
	C132.746399,155.839493 129.318893,159.599197 126.210732,163.606583 
	C123.184288,167.508591 120.484718,171.664108 117.345901,175.859833 
	C117.386581,159.455414 122.555061,144.496292 132.441956,130.832001 
	C133.615189,137.606277 134.788406,144.380569 135.997894,151.563126 
z"/>
</svg>